<?xml version="1.0" encoding="utf-8"?>
<!-- Generator: Adobe Illustrator 27.0.0, SVG Export Plug-In . SVG Version: 6.00 Build 0)  -->
<svg version="1.1" id="Layer_1" xmlns="http://www.w3.org/2000/svg" xmlns:xlink="http://www.w3.org/1999/xlink" x="0px" y="0px"
	 viewBox="0 0 48 48" style="enable-background:new 0 0 48 48;" xml:space="preserve">
<style type="text/css">
	.st0{display:none;}
	.st1{display:inline;fill:none;stroke:#020203;stroke-width:2;stroke-linecap:round;stroke-linejoin:round;}
	.st2{fill:none;stroke:#FFFFFF;stroke-width:4;stroke-linecap:round;stroke-linejoin:round;}
</style>
<g id="Layer_1_1_" class="st0">
	<path class="st1" d="M2.6,7.4h42.7"/>
	<path class="st1" d="M2.6,24h42.7"/>
	<path class="st1" d="M2.6,40.6h42.7"/>
</g>
<g id="Layer_2_1_" class="st0">
	<path class="st1" d="M34.2,34.1l10.1,10.1"/>
	<path class="st1" d="M4,21.1c0,9.5,7.7,17.3,17.3,17.3c4.8,0,9.1-1.9,12.2-5.1c3.1-3.1,5-7.4,5-12.2c0-9.5-7.7-17.3-17.3-17.3
		C11.7,3.9,4,11.6,4,21.1z"/>
</g>
<g id="Layer_4">
	<g>
		<path class="st2" d="M41.2,12.5H6.8c-0.8,0-1.6,0.6-1.7,1.5l-3,27.2C2,42.1,2.7,42.9,3.6,43c0.1,0,0.1,0,0.2,0h40.5
			c0.9,0,1.7-0.8,1.6-1.7c0-0.1,0-0.1,0-0.2l-3-27.3C42.7,13.1,42,12.5,41.2,12.5z"/>
		<path class="st2" d="M15.5,19.3v-6.8c0-4.7,3.8-8.5,8.5-8.5s8.5,3.8,8.5,8.5v6.8"/>
	</g>
</g>
</svg>
