<?xml version="1.0" encoding="utf-8"?>
<!-- Generator: Adobe Illustrator 27.0.0, SVG Export Plug-In . SVG Version: 6.00 Build 0)  -->
<svg version="1.1" id="Layer_1" xmlns="http://www.w3.org/2000/svg" xmlns:xlink="http://www.w3.org/1999/xlink" x="0px" y="0px"
	 viewBox="0 0 48 48" style="enable-background:new 0 0 48 48;" xml:space="preserve">
<style type="text/css">
	.st0{display:none;}
	.st1{display:inline;fill:none;stroke:#020203;stroke-width:2;stroke-linecap:round;stroke-linejoin:round;}
	.st2{fill:none;stroke:#FFFFFF;stroke-width:4;stroke-linecap:round;stroke-linejoin:round;}
	.st3{display:inline;}
	.st4{fill:none;stroke:#020203;stroke-width:2;stroke-linecap:round;stroke-linejoin:round;}
</style>
<g id="Layer_1_1_" class="st0">
	<path class="st1" d="M2.6,7.4h42.7"/>
	<path class="st1" d="M2.6,24h42.7"/>
	<path class="st1" d="M2.6,40.6h42.7"/>
</g>
<g id="Layer_2_1_">
	<g>
		<path class="st2" d="M34.9,34.9l10.9,10.9"/>
		<path class="st2" d="M2.1,20.9c0,10.3,8.4,18.7,18.7,18.7c5.2,0,9.9-2.1,13.2-5.5s5.5-8.1,5.5-13.2c0-10.3-8.4-18.7-18.7-18.7
			S2.1,10.5,2.1,20.9z"/>
	</g>
</g>
<g id="Layer_4" class="st0">
	<g class="st3">
		<path class="st4" d="M40.8,13.2H7.2c-0.8,0-1.6,0.6-1.7,1.5L2.6,41.2c-0.1,0.9,0.6,1.7,1.5,1.8c0.1,0,0.1,0,0.2,0h39.5
			c0.9,0,1.7-0.8,1.6-1.7c0-0.1,0-0.1,0-0.2l-2.9-26.6C42.3,13.8,41.6,13.2,40.8,13.2z"/>
		<path class="st4" d="M15.7,19.9v-6.6C15.7,8.7,19.4,5,24,5s8.3,3.7,8.3,8.3v6.6"/>
	</g>
</g>
</svg>
