<?xml version="1.0" encoding="utf-8"?>
<!-- Generator: Adobe Illustrator 24.1.1, SVG Export Plug-In . SVG Version: 6.00 Build 0)  -->
<svg version="1.1" id="Layer_1" xmlns="http://www.w3.org/2000/svg" xmlns:xlink="http://www.w3.org/1999/xlink" x="0px" y="0px"
	 viewBox="0 0 2500 518" style="enable-background:new 0 0 2500 518;" xml:space="preserve">
<style type="text/css">
	.st0{fill:#FFFFFF;}
</style>
<path class="st0" d="M508.9,156.9C493.5,78,440.7,20.8,345.4,19.9h-4.2C232.5,20.6,151.8,75.2,109,156.9
	C85.4,203,73.3,254.1,73.9,306c0,104.8,58.1,170.8,132.5,189.3c14.4,3.6,29.3,5.4,44.1,5.3c16.3,0.2,32.5-1.6,48.4-5.3
	c29.3-6.6,55.5-23,74.4-46.3v41.6c-0.1,0.6-0.1,1.2,0,1.8c0.7,1.7,2.3,2.8,4.2,2.9h64.3c0.8-0.1,1.5-0.3,2.2-0.7
	c1.1-0.7,1.8-1.8,2.1-3l44.4-227.2c0-0.4,0-0.8,0-1.3c0-2.7-2.2-4.8-4.8-4.8c0,0,0,0,0,0H324.2c-2.2-0.1-4.3,1.4-4.8,3.6l-12.2,61.5
	v0.9c-0.1,0.6-0.1,1.3,0,1.9c0.8,1.8,2.5,2.9,4.5,2.9h81.5c-17.5,48.4-58.1,90.7-122.9,90.7c-64.8,0-105.7-46.7-105.7-126.6
	c-0.9-49.3,15.3-97.5,45.7-136.3c28.3-35.6,71.3-56.4,116.8-56.3c45.2,0,71.5,20.6,89.1,56.3c4.5,9.4,8.4,19.1,11.5,29
	c0.7,1.8,2.5,3,4.4,3h1.4l73.1-19.4c0.5-0.1,1-0.3,1.4-0.6c1.4-0.9,2.3-2.5,2.3-4.2V164C510.2,161.7,509.3,159.3,508.9,156.9
	 M687.8,24.8c0-2.7-2.2-4.8-4.8-4.8l0,0h-74.1c-2.4,0-4.4,1.7-4.7,4.1l-25.7,132.9L514,489.3v1.1c-0.1,0.6-0.1,1.2,0,1.8
	c0.7,1.8,2.5,3,4.5,3h74c2.2,0.1,4.2-1.4,4.7-3.6L662,156.9l25.4-131.3v-0.8 M919.3,156.9c-14.4-3.6-29.2-5.4-44-5.3
	c-17.8-0.2-35.5,1.6-52.8,5.3c-32.5,7.8-62.1,24.5-85.4,48.4c-40.3,38.7-58.1,88.6-58.1,152.4c0,66.2,38.2,120.7,103.6,137.6
	c14.4,3.6,29.2,5.4,44.1,5.3c18.1,0.3,36.2-1.4,53.9-5.3c32.4-7.8,62-24.5,85.3-48.4c40.3-38.7,58.1-88.5,58.1-152.3
	c0-66.3-38.7-120.9-103.6-137.7 M909,393.1c-17.3,23.6-45.2,37.2-74.5,36.3c-39.6,0-65.8-32.2-65.8-84.6c0-36.3,8-64.4,24.9-85.9
	c17.4-23.5,45.3-36.9,74.5-35.8c39.6,0,65.8,32.2,65.8,84.6c0,36.3-8.1,64.4-24.9,85.9 M1301.4,205.5c-11.3-22.1-36.9-40-66.5-48.4
	c-12.1-3.5-24.6-5.3-37.2-5.3c-14.5-0.1-28.9,1.7-43,5.3c-45.6,9.9-77.4,51.4-75.2,98c0,45,29.6,71.2,69.2,90
	c39.6,18.8,58.1,30.2,58.1,49.6c0,24.2-20.2,34.9-43,34.9c-32,0-54.9-19.4-64.4-52.7c-0.7-2-2.6-3.3-4.6-3.3c-0.6-0.1-1.2-0.1-1.8,0
	l-62.3,25.9c-1.8,0.7-3,2.5-3,4.4v0.8c10.5,43.4,43.5,77.9,86.5,90.3c13.1,3.6,26.6,5.4,40.1,5.3c16,0.1,31.9-1.7,47.5-5.3
	c51.3-12.7,85.4-48.4,85.4-112.1c0-46.9-34.9-69.8-69.8-85.9c-22.8-10.8-58.1-20.8-58.1-44.3c-0.2-16.6,13.1-30.1,29.7-30.3
	c1.1,0,2.2,0,3.2,0.1c19.6,0,37.9,9.5,49.1,25.6c0.9,1.2,2.4,1.9,3.9,1.9c0.9,0,1.7-0.3,2.5-0.7l52.1-37.5c1.8-1.4,2.4-3.9,1.3-5.9
	 M1511.4,156.9c-12.1-3.5-24.6-5.3-37.2-5.3c-14.5-0.1-29,1.7-43,5.3c-45.6,10-77.3,51.4-75.1,98c0,45,29,71.2,69.2,90
	c38.2,18.1,58.1,30.2,58.1,49.6c0,24.2-20.1,34.9-43,34.9c-32,0-55-19.4-64.5-52.9c-0.7-1.9-2.5-3.1-4.4-3.1c-0.6-0.1-1.3-0.1-2,0
	l-62.2,25.8c-1.8,0.8-2.9,2.5-2.9,4.4c-0.1,0.3-0.1,0.6,0,1c10.6,43.4,43.5,77.7,86.4,90.1c13.1,3.6,26.7,5.4,40.3,5.3
	c16,0.1,31.9-1.6,47.4-5.3c51.3-12.7,85.5-48.4,85.5-112.1c0-46.9-34.9-69.8-69.9-85.9c-22.8-10.7-58-20.8-58-44.3
	c-0.2-16.6,13.1-30.1,29.6-30.3c1.1,0,2.2,0,3.2,0.1c19.5,0,37.8,9.5,49,25.4c0.9,1.3,2.4,2.1,4,2c0.9,0,1.7-0.3,2.5-0.7l52.7-37.5
	c1-1,1.6-2.3,1.6-3.8c0-0.7-0.2-1.5-0.5-2.1c-11.3-22.1-36.9-40.2-66.5-48.4 M1728.3,156.9h-73.7c-2.1,0-4,1.4-4.6,3.5l-63.9,329
	c-0.1,0.4-0.1,0.7,0,1.1c-0.1,0.6-0.1,1.2,0,1.8c0.8,1.8,2.5,3,4.4,3h73.7c0.9,0,1.7-0.3,2.5-0.7c1.1-0.6,1.8-1.7,2.1-2.9
	l64.1-329.6c-0.1-2.6-2.2-4.8-4.8-4.8 M1989.5,156.9c-14-3.6-28.4-5.4-42.9-5.3c-16.3,0-32.5,1.8-48.4,5.3
	c-90.2,20.6-153.7,101.5-152.3,194c0,77.4,41.4,128.5,102.1,144.4c14,3.6,28.4,5.4,42.9,5.3c16.9,0.2,33.7-1.6,50.2-5.3
	c47.1-10.9,81.5-38.7,113.4-85.1c1.3-2.3,0.6-5.2-1.6-6.6l-58-30.1c-0.6-0.3-1.3-0.5-1.9-0.5c-1.4,0-2.8,0.7-3.7,1.8
	c-24.3,34.9-52.1,54.6-90.5,54.6c-44.3,0-68.5-30.9-68.5-65.8v-10.7h239.4c0.9,0,1.7-0.3,2.5-0.7c1-0.6,1.8-1.6,2.1-2.7
	c5.5-20.3,8.4-41.3,8.4-62.4c0-62.5-31.9-114-92.8-130.2 M1845.9,287.1c14.2-37.7,49.7-63.1,90-64.4c42.3,0,61.7,22.2,64.4,64.4
	H1845.9z M2353.2,232.8c0.7,0.4,1.5,0.6,2.3,0.6c0.9,0,1.8-0.2,2.5-0.7c0.9-0.6,1.5-1.4,1.9-2.3l24.7-65.3c0.1-0.6,0.1-1.3,0-1.9
	c0-1.9-1.2-3.7-3-4.5l-4.6-1.6c-11.1-3.9-22.9-5.7-34.7-5.3c-12.3-0.1-24.5,1.7-36.2,5.3c-27.9,9.2-52.3,26.8-69.9,50.4l8.8-44.4
	c0.8-2.4-0.6-5-3.1-5.8c-0.5-0.2-1-0.2-1.6-0.2h-74c-2.3,0-4.3,1.7-4.7,4l-64,329c0,0.3,0,0.5,0,0.8c-0.1,0.6-0.1,1.2,0,1.8
	c0.7,1.8,2.5,3,4.4,3h74.9c0.9,0,1.7-0.3,2.5-0.7c1.1-0.7,1.8-1.8,2.1-3l22.8-116.1c20.1-106.4,77.4-149,119.5-149
	c10-0.2,20,2,29,6.4 M1706.3,25.2c-26.3,0-47.7,21.4-47.7,47.7c0,26.3,21.4,47.7,47.7,47.7c26.3,0,47.7-21.4,47.7-47.7
	c0.6-25.8-19.9-47.2-45.7-47.7C1707.6,25.2,1706.9,25.2,1706.3,25.2 M2357.6,406.4c-26.5,0.1-47.8,21.6-47.7,48.1
	c0.1,16.7,8.8,32.1,23,40.7c15.3,8.6,34,8.6,49.2,0c22.6-13.7,29.8-43.2,16.1-65.8C2389.6,415.2,2374.2,406.5,2357.6,406.4"/>
</svg>
